<svg xmlns="http://www.w3.org/2000/svg" width="77" height="77" viewBox="0 0 77 77" fill="none"><g opacity="0.6"><rect x="1.14819" y="1.07861" width="74" height="74" rx="37" stroke="#E6316A" stroke-opacity="0.5" stroke-width="2" stroke-dasharray="7 7"></rect><rect x="10.1482" y="10.0786" width="56" height="56" rx="28" fill="#E6316A"></rect><g clip-path="url(#clip0_1_23)"><path d="M31.9389 35.7685V34.6367L28.0939 38.0243L31.9389 41.5127V40.3809C39.7373 39.3034 44.218 40.3809 44.218 40.3809V41.5127L48.2102 38.0243L44.218 34.6367V35.7143C38.2645 36.7375 31.9389 35.7685 31.9389 35.7685Z" fill="white"></path><path opacity="0.47" d="M36.2025 40.5437C36.0862 42.9003 35.8381 44.2879 35.8381 44.2879H34.7063L38.0939 48.1329L41.5823 44.2879H40.4505C40.249 42.8383 40.1249 41.722 40.0552 40.505C38.9311 40.474 37.6443 40.474 36.1947 40.5437H36.2025Z" fill="white"></path><path opacity="0.47" d="M34.7063 32.0089H35.7838C36.0009 33.2724 36.1249 34.3267 36.1947 35.5592C37.3652 35.598 38.6598 35.6135 40.0164 35.5592C40.1327 33.1019 40.4505 32.0011 40.4505 32.0011H41.5823L38.0939 28.0089L34.7063 32.0011V32.0089Z" fill="white"></path><path d="M26.1482 38.0786C26.1482 44.7065 31.5203 50.0786 38.1482 50.0786C44.7761 50.0786 50.1482 44.7065 50.1482 38.0786C50.1482 31.4507 44.7761 26.0786 38.1482 26.0786C31.5203 26.0786 26.1482 31.4507 26.1482 38.0786ZM49.0319 38.0786C49.0319 44.0786 44.1482 48.9623 38.1482 48.9623C32.1482 48.9623 27.2645 44.0786 27.2645 38.0786C27.2645 32.0786 32.1482 27.1949 38.1482 27.1949C44.1482 27.1949 49.0319 32.0786 49.0319 38.0786Z" fill="white"></path></g></g><defs><clipPath id="clip0_1_23"><rect width="24" height="24" fill="white" transform="translate(26.1482 26.0786)"></rect></clipPath></defs></svg>