<svg xmlns="http://www.w3.org/2000/svg" width="77" height="77" viewBox="0 0 77 77" fill="none"><rect x="1.14819" y="1.07861" width="74" height="74" rx="37" stroke="#E6316A" stroke-opacity="0.5" stroke-width="2" stroke-dasharray="7 7"></rect><rect x="10.1482" y="10.0786" width="56" height="56" rx="28" fill="#E6316A"></rect><path d="M47.8031 28.9576C47.8003 30.0925 46.9307 31.3813 45.2651 32.2402C44.6798 32.5421 43.2758 33.122 42.1567 33.4554C41.3086 33.7108 39.4562 34.3212 38.1938 34.762C37.3521 35.055 34.9712 35.3561 35.1733 35.8462C35.1986 35.9075 35.6182 35.7902 36.213 35.7121C37.0684 35.5998 37.3777 35.6652 37.6518 35.8185C37.8305 35.9206 37.9323 36.0523 37.9484 36.2003C37.9643 36.3617 37.8751 36.523 37.6901 36.6707C37.4223 36.8859 34.5497 38.0123 34.5497 38.0123C33.4913 38.4155 32.4519 38.9101 31.2787 39.5717C30.1755 40.1954 29.2413 40.4293 28.5944 40.7037C28.6772 40.5586 29.3786 39.3546 29.6309 38.9898C30.7484 37.3648 32.2518 35.7174 33.6526 34.5828C35.1809 33.3482 36.7949 32.3802 38.4493 31.7058C39.268 31.372 39.5858 31.2661 40.8789 30.8973C41.4664 30.7264 41.6371 30.6699 41.6596 30.5091C41.6802 30.3933 41.627 30.3267 41.5786 30.2915C41.4553 30.2005 41.2615 30.228 40.9241 30.3147C38.9841 30.8112 37.1962 31.5376 35.61 32.4741C34.9965 32.8351 33.6004 33.8401 32.9424 34.3948C30.9641 36.0593 28.8565 38.5792 28.0043 40.4479C27.6527 41.2191 27.1499 42.5745 27.1499 42.5745C26.8055 43.6014 26.7514 43.7601 26.4675 43.7601C26.3302 43.7601 26.2572 43.7089 26.2189 43.666C26.1168 43.5449 26.1266 43.2529 26.2398 42.9116C26.3166 42.6796 27.037 40.4666 27.3358 39.6266C27.3358 38.328 27.319 37.703 27.4212 37.2539C27.7877 35.622 28.1751 34.5041 28.9833 33.186C30.5571 30.6197 32.1246 30.0485 32.2448 30.5083C32.2739 30.6192 31.952 31.404 32.2574 31.4096C32.3365 31.4109 32.9895 30.5261 33.0844 30.4267C34.5159 28.9283 35.5205 28.2499 36.2108 27.9971C37.0795 27.6793 36.8803 28.427 36.8803 28.427C36.8803 28.427 37.6006 27.9211 37.7571 27.822C39.1131 26.963 40.464 26.314 42.1314 26.1231C43.1325 26.0103 44.6659 26.1204 45.4153 26.3596C46.9964 26.8633 47.8063 27.7369 47.8031 28.9576ZM49.4905 38.4293C49.8538 39.2573 49.9123 42.3268 47.8531 45.5307C46.5224 47.601 44.5122 48.5413 43.6252 48.6674C42.8913 48.7717 43.9313 47.9015 43.6018 47.8383C43.3248 47.7853 41.7687 49.5522 39.268 49.9953C38.3725 50.154 36.5479 50.202 35.4168 49.0383C34.6348 48.2341 33.9527 46.8645 34.7505 45.4248C35.7049 43.703 38.1205 42.9353 39.4691 42.5401C42.1184 41.7631 43.6616 41.1636 44.6245 40.5346C45.0485 40.2549 46.2919 39.3114 46.8914 38.7709C47.3759 38.3328 47.8701 38.0853 48.2623 37.9483C47.5874 39.2464 46.2856 41.2122 45.3992 42.2257C44.2861 43.4985 42.3531 45.0288 40.968 45.7496C40.8197 45.8616 40.8349 45.9992 40.8956 46.0797C40.9655 46.1723 41.1148 46.3067 41.3937 46.1637C41.4028 46.1592 41.4082 46.1584 41.4164 46.1547C42.6936 45.4878 44.4575 44.1163 45.667 42.8385C46.6173 41.8439 47.9786 39.9071 48.6639 38.6149C48.9292 38.1149 49.3779 36.6739 49.4418 36.3566C49.4544 36.2787 49.5088 36.0097 49.5534 35.9318C49.6331 35.8161 49.7798 35.7785 49.8883 35.7868C50.003 35.7974 50.0954 35.8539 50.1336 35.9427C50.2197 36.131 49.9009 37.2118 49.7893 37.5155C49.7222 37.7038 49.6587 37.8784 49.652 37.9296C49.5822 38.1632 49.5161 38.3664 49.4905 38.4293ZM40.18 46.5648C40.1576 46.4573 40.0908 46.4061 40.0396 46.3819C39.8897 46.3147 39.6952 46.3659 39.3126 46.5109C39.0957 46.5971 38.7418 46.7125 38.5189 46.7744C38.1872 46.8658 38.0057 46.9168 38.0057 47.1157C38.0057 47.1533 38.0057 47.2312 38.079 47.2904C38.1429 47.3416 38.2194 47.3496 38.2893 47.3496C38.3149 47.3496 38.3434 47.3469 38.3785 47.3469C38.6112 47.3362 39.5166 47.0565 39.9055 46.8872C40.008 46.8442 40.2183 46.7557 40.18 46.5648Z" fill="white"></path></svg>