<svg xmlns="http://www.w3.org/2000/svg" width="57" height="58" viewBox="0 0 57 58" fill="none"><rect x="0.148193" y="0.556875" width="56" height="57.0435" rx="28" fill="#E6316A"></rect><g clip-path="url(#clip0_1_12)"><path d="M23.6664 25.349C23.6913 24.0658 24.1565 22.6335 24.8543 21.2593C25.6851 19.62 26.765 18.163 28.0278 16.8301C28.36 16.4824 28.792 16.4493 29.0994 16.7804C30.7941 18.5769 32.1981 20.5638 33.0205 22.915C33.3445 23.8505 33.5272 24.8109 33.5106 25.7961C33.4608 28.6357 30.8689 30.8793 28.0444 30.5315C25.5106 30.2252 23.6498 28.1224 23.6747 25.3407L23.6664 25.349Z" fill="white"></path><path d="M20.6591 29.5464C23.1181 31.02 25.7349 31.9803 28.6342 31.9721C31.5002 31.9638 34.0838 31.0034 36.5926 29.5629C36.2853 29.505 36.0444 29.4719 35.8117 29.4139C35.305 29.2897 35.1056 28.7019 35.4296 28.3045C35.5791 28.1141 35.7868 28.0065 36.0277 28.0479C36.9 28.1886 37.764 28.3377 38.6279 28.5115C39.0184 28.586 39.2261 28.9834 39.1098 29.3642C38.8522 30.2004 38.5864 31.0448 38.3123 31.8727C38.1877 32.2535 37.8055 32.444 37.4317 32.3363C37.0579 32.2287 36.8668 31.8396 36.9748 31.4339C37.0246 31.2601 37.0745 31.0945 37.1492 30.8461C31.3839 34.2156 25.6684 34.1742 19.9197 30.7882C19.9945 31.0531 20.0527 31.2353 20.1108 31.4174C20.2354 31.8396 20.0527 32.2204 19.6705 32.3446C19.2884 32.4688 18.9145 32.2618 18.7733 31.8479C18.5158 31.0448 18.25 30.2335 18.0007 29.4222C17.8595 28.9586 18.0921 28.5695 18.5739 28.4867C19.3715 28.3377 20.169 28.1969 20.9665 28.0562C21.3818 27.9817 21.7474 28.2383 21.8138 28.6357C21.8803 29 21.6227 29.3477 21.224 29.4387C21.0329 29.4801 20.8419 29.505 20.6508 29.5464H20.6591Z" fill="white"></path><path d="M38.819 35.4243H17.4774C16.7433 35.4243 16.1482 36.0174 16.1482 36.749V40.2757C16.1482 41.0073 16.7433 41.6004 17.4774 41.6004H38.819C39.5531 41.6004 40.1482 41.0073 40.1482 40.2757V36.749C40.1482 36.0174 39.5531 35.4243 38.819 35.4243Z" fill="white"></path></g><defs><clipPath id="clip0_1_12"><rect width="24" height="25.0435" fill="white" transform="translate(16.1482 16.5569)"></rect></clipPath></defs></svg>