<svg xmlns="http://www.w3.org/2000/svg" width="77" height="83" viewBox="0 0 77 83" fill="none"><g opacity="0.6"><rect x="1.14819" y="1.07861" width="74" height="80" rx="37" stroke="#E6316A" stroke-opacity="0.5" stroke-width="2" stroke-dasharray="7 7"></rect><rect x="10.1482" y="12.5569" width="56" height="57.0435" rx="28" fill="#E6316A"></rect><g clip-path="url(#clip0_1_11)"><path d="M33.6664 37.349C33.6913 36.0658 34.1565 34.6335 34.8543 33.2593C35.6851 31.62 36.765 30.163 38.0278 28.8301C38.36 28.4824 38.792 28.4493 39.0994 28.7804C40.7941 30.5769 42.1981 32.5638 43.0205 34.915C43.3445 35.8505 43.5272 36.8109 43.5106 37.7961C43.4608 40.6357 40.8689 42.8793 38.0444 42.5315C35.5106 42.2252 33.6498 40.1224 33.6747 37.3407L33.6664 37.349Z" fill="white"></path><path d="M30.6591 41.5464C33.1181 43.02 35.7349 43.9803 38.6342 43.9721C41.5002 43.9638 44.0838 43.0034 46.5926 41.5629C46.2853 41.505 46.0444 41.4719 45.8117 41.4139C45.305 41.2897 45.1056 40.7019 45.4296 40.3045C45.5791 40.1141 45.7868 40.0065 46.0277 40.0479C46.9 40.1886 47.764 40.3377 48.6279 40.5115C49.0184 40.586 49.2261 40.9834 49.1098 41.3642C48.8522 42.2004 48.5864 43.0448 48.3123 43.8727C48.1877 44.2535 47.8055 44.444 47.4317 44.3363C47.0579 44.2287 46.8668 43.8396 46.9748 43.4339C47.0246 43.2601 47.0745 43.0945 47.1492 42.8461C41.3839 46.2156 35.6684 46.1742 29.9197 42.7882C29.9945 43.0531 30.0527 43.2353 30.1108 43.4174C30.2354 43.8396 30.0527 44.2204 29.6705 44.3446C29.2884 44.4688 28.9145 44.2618 28.7733 43.8479C28.5158 43.0448 28.25 42.2335 28.0007 41.4222C27.8595 40.9586 28.0921 40.5695 28.5739 40.4867C29.3715 40.3377 30.169 40.1969 30.9665 40.0562C31.3818 39.9817 31.7474 40.2383 31.8138 40.6357C31.8803 41 31.6227 41.3477 31.224 41.4387C31.0329 41.4801 30.8419 41.505 30.6508 41.5464H30.6591Z" fill="white"></path><path d="M48.819 47.4243H27.4774C26.7433 47.4243 26.1482 48.0174 26.1482 48.749V52.2757C26.1482 53.0073 26.7433 53.6004 27.4774 53.6004H48.819C49.5531 53.6004 50.1482 53.0073 50.1482 52.2757V48.749C50.1482 48.0174 49.5531 47.4243 48.819 47.4243Z" fill="white"></path></g></g><defs><clipPath id="clip0_1_11"><rect width="24" height="25.0435" fill="white" transform="translate(26.1482 28.5569)"></rect></clipPath></defs></svg>