<svg xmlns="http://www.w3.org/2000/svg" width="77" height="83" viewBox="0 0 77 83" fill="none"><g opacity="0.6"><rect x="1.14819" y="1.07861" width="74" height="80" rx="37" stroke="#E6316A" stroke-opacity="0.5" stroke-width="2" stroke-dasharray="7 7"></rect><rect x="10.1482" y="13.0745" width="56" height="56.0083" rx="28" fill="#E6316A"></rect><path d="M26.1482 48.3916C26.2306 48.3916 26.3213 48.3916 26.4038 48.3916C34.2196 48.3916 42.0273 48.3916 49.8431 48.3916H50.1482V53.0827H26.1482C26.1482 51.5163 26.1482 49.9498 26.1482 48.3916Z" fill="white"></path><path d="M26.1482 43.2799C26.6016 43.2882 27.0551 43.3047 27.5003 43.3129C29.3966 43.3129 31.2434 43.6427 33.0654 44.1209C34.8875 44.6073 36.759 44.7145 38.6387 44.7062C40.568 44.6897 42.4395 44.3517 44.2945 43.8653C46.1661 43.3789 48.0871 43.2799 50.008 43.3047C50.0493 43.3047 50.0822 43.3129 50.1317 43.3211V46.9817H49.8349C42.0438 46.9817 34.2444 46.9817 26.4532 46.9817C26.3543 46.9817 26.2471 46.9817 26.1482 46.9817C26.1482 45.7451 26.1482 44.5166 26.1482 43.2799Z" fill="white"></path><path d="M26.1482 34.2768C26.4615 33.9388 26.7665 33.5925 27.0881 33.238C27.3601 33.5101 27.558 33.7162 27.7559 33.9141C28.5226 34.6891 29.2894 35.4723 30.0561 36.2555C30.1303 36.3297 30.1963 36.4287 30.2128 36.5276C30.3035 37.3686 30.5178 38.1683 30.8559 38.935C30.8723 38.968 30.8723 39.001 30.8806 39.0422C30.8559 39.0669 30.8311 39.0834 30.8064 39.1082C30.7652 39.034 30.7322 38.9515 30.6745 38.8856C29.2234 37.4098 27.7724 35.934 26.3213 34.4665C26.2719 34.417 26.2059 34.3675 26.1482 34.3263C26.1482 34.3098 26.1482 34.2933 26.1482 34.2768Z" fill="white"></path><path d="M38.1358 42.3071C34.4752 42.2988 31.5237 39.3308 31.5319 35.6784C31.5402 32.0261 34.5082 29.0745 38.1606 29.0745C41.8129 29.0745 44.7727 32.0508 44.7645 35.7031C44.7562 39.3637 41.7882 42.3153 38.1358 42.3071ZM36.0994 34.1367C36.0994 34.2438 36.0994 34.3263 36.0994 34.417C36.0994 35.0518 36.0994 35.6784 36.0994 36.3132C36.0994 36.4699 36.0994 36.6265 36.0664 36.7749C35.9922 37.1295 35.8026 37.2861 35.4728 37.2861C35.1266 37.2861 34.9287 37.1377 34.8545 36.7749C34.8215 36.6265 34.8215 36.4616 34.8215 36.3132C34.8215 35.6702 34.8215 35.0353 34.8215 34.3923C34.8215 34.3098 34.8215 34.2274 34.8215 34.1532H33.4199C33.4199 35.0436 33.3869 35.9175 33.4282 36.7832C33.4694 37.6406 34.0135 38.2095 34.8462 38.3826C35.1101 38.4403 35.3904 38.4568 35.6625 38.4403C36.2478 38.4074 36.7837 38.2177 37.1465 37.7148C37.3938 37.3768 37.501 36.9893 37.501 36.5688C37.501 35.8021 37.501 35.0353 37.501 34.2768C37.501 34.2356 37.4845 34.1861 37.4845 34.1367H36.0994ZM38.3255 34.1284C38.3337 34.1861 38.3337 34.2109 38.3419 34.2356C38.9026 35.563 39.4632 36.8986 40.0321 38.2177C40.0568 38.2837 40.164 38.3414 40.2382 38.3497C40.5927 38.3661 40.939 38.3497 41.2935 38.3579C41.4502 38.3579 41.5079 38.3002 41.5656 38.1683C42.1015 36.8821 42.6539 35.596 43.1898 34.3098C43.2145 34.2603 43.2227 34.2026 43.2475 34.1284C42.8435 34.1284 42.4725 34.1367 42.1015 34.1284C41.9201 34.1284 41.8459 34.1861 41.7799 34.351C41.4831 35.0848 41.1698 35.8186 40.8483 36.5936C40.7988 36.4946 40.7659 36.4204 40.7411 36.3545C40.4608 35.6784 40.1887 34.9941 39.9084 34.3181C39.8754 34.2438 39.793 34.1449 39.7353 34.1449C39.2736 34.1284 38.8119 34.1449 38.3337 34.1449L38.3255 34.1284Z" fill="white"></path><path d="M50.1317 36.7584H48.7549V35.6949C48.7549 35.6949 48.7219 35.6784 48.6972 35.6702C47.6006 36.8327 46.4958 37.9951 45.3993 39.1576C45.3911 39.1576 45.3746 39.1494 45.3663 39.1411C45.3828 39.0999 45.3911 39.0504 45.4076 39.0092C45.7621 38.2177 45.9929 37.4015 46.0836 36.5358C46.0919 36.4369 46.1496 36.3297 46.2238 36.2555C46.6855 35.7526 47.1554 35.2662 47.6171 34.7715C47.6666 34.7138 47.716 34.6561 47.7985 34.5654H46.5453V33.1721H50.1317V36.7584Z" fill="white"></path></g></svg>