<svg xmlns="http://www.w3.org/2000/svg" width="77" height="77" viewBox="0 0 77 77" fill="none"><g opacity="0.6"><rect x="1.14819" y="1.07861" width="74" height="74" rx="37" stroke="#E6316A" stroke-opacity="0.5" stroke-width="2" stroke-dasharray="7 7"></rect><rect x="10.1482" y="10.0786" width="56" height="56" rx="28" fill="#E6316A"></rect><path d="M27.1299 38.0749H26.1482C26.1482 31.4632 31.5328 26.0786 38.1519 26.0786C41.6846 26.0786 45.0239 27.6256 47.3146 30.3253L46.5709 30.9574C44.4661 28.4808 41.402 27.0529 38.1519 27.0529C32.0757 27.0529 27.1299 31.9987 27.1299 38.0749Z" fill="white"></path><path d="M46.6527 30.355C46.9502 28.9494 48.3781 27.4396 49.5309 26.6513C48.7202 28.8453 48.3335 31.2549 48.7574 33.5977C46.8237 32.2367 44.4215 31.7235 42.1011 31.4781C43.4249 30.7641 45.1429 30.0799 46.6601 30.3625L46.6527 30.355Z" fill="white"></path><path d="M38.1519 50.0786C34.3589 50.0786 30.8634 48.3383 28.5727 45.3113L29.3536 44.7238C31.4584 47.5053 34.6638 49.1043 38.1519 49.1043C44.2281 49.1043 49.1739 44.1586 49.1739 38.0823H50.1482C50.1482 44.7015 44.7636 50.0786 38.1519 50.0786Z" fill="white"></path><path d="M29.2272 45.3113C28.8479 46.7021 27.3382 48.1226 26.1482 48.8515C27.0853 46.7095 27.6059 44.3222 27.3158 41.9571C29.1677 43.4297 31.5328 44.0693 33.8457 44.4561C32.4847 45.0957 30.7295 45.6758 29.2347 45.3113H29.2272Z" fill="white"></path><path d="M38.9626 38.5509H35.0729L33.1318 35.1892L35.0729 31.8276H38.9626L40.9037 35.1892L38.9626 38.5509ZM35.6381 37.5766H38.3973L39.7807 35.1892L38.3973 32.8019H35.6381L34.2548 35.1892L35.6381 37.5766Z" fill="white"></path><path d="M43.9455 41.4291H40.0558L38.1147 38.06L40.0558 34.6984H43.9455L45.8867 38.06L43.9455 41.4291ZM40.6211 40.4548H43.3803L44.7636 38.06L43.3803 35.6727H40.6211L39.2378 38.06L40.6211 40.4548Z" fill="white"></path><path d="M38.9626 44.3073H35.0729L33.1318 40.9457L35.0729 37.5766H38.9626L40.9037 40.9457L38.9626 44.3073ZM35.6381 43.333H38.3973L39.7807 40.9457L38.3973 38.5509H35.6381L34.2548 40.9457L35.6381 43.333Z" fill="white"></path><path d="M27.1299 38.0749H26.1482C26.1482 31.4632 31.5328 26.0786 38.1519 26.0786C41.6846 26.0786 45.0239 27.6256 47.3146 30.3253L46.5709 30.9574C44.4661 28.4808 41.402 27.0529 38.1519 27.0529C32.0757 27.0529 27.1299 31.9987 27.1299 38.0749Z" stroke="white"></path><path d="M46.6527 30.355C46.9502 28.9494 48.3781 27.4396 49.5309 26.6513C48.7202 28.8453 48.3335 31.2549 48.7574 33.5977C46.8237 32.2367 44.4215 31.7235 42.1011 31.4781C43.4249 30.7641 45.1429 30.0799 46.6601 30.3625L46.6527 30.355Z" stroke="white"></path><path d="M38.1519 50.0786C34.3589 50.0786 30.8634 48.3383 28.5727 45.3113L29.3536 44.7238C31.4584 47.5053 34.6638 49.1043 38.1519 49.1043C44.2281 49.1043 49.1739 44.1586 49.1739 38.0823H50.1482C50.1482 44.7015 44.7636 50.0786 38.1519 50.0786Z" stroke="white"></path><path d="M29.2272 45.3113C28.8479 46.7021 27.3382 48.1226 26.1482 48.8515C27.0853 46.7095 27.6059 44.3222 27.3158 41.9571C29.1677 43.4297 31.5328 44.0693 33.8457 44.4561C32.4847 45.0957 30.7295 45.6758 29.2347 45.3113H29.2272Z" stroke="white"></path><path d="M38.9626 38.5509H35.0729L33.1318 35.1892L35.0729 31.8276H38.9626L40.9037 35.1892L38.9626 38.5509ZM35.6381 37.5766H38.3973L39.7807 35.1892L38.3973 32.8019H35.6381L34.2548 35.1892L35.6381 37.5766Z" stroke="white"></path><path d="M43.9455 41.4291H40.0558L38.1147 38.06L40.0558 34.6984H43.9455L45.8867 38.06L43.9455 41.4291ZM40.6211 40.4548H43.3803L44.7636 38.06L43.3803 35.6727H40.6211L39.2378 38.06L40.6211 40.4548Z" stroke="white"></path><path d="M38.9626 44.3073H35.0729L33.1318 40.9457L35.0729 37.5766H38.9626L40.9037 40.9457L38.9626 44.3073ZM35.6381 43.333H38.3973L39.7807 40.9457L38.3973 38.5509H35.6381L34.2548 40.9457L35.6381 43.333Z" stroke="white"></path></g></svg>