<svg xmlns="http://www.w3.org/2000/svg" width="57" height="57" viewBox="0 0 57 57" fill="none"><rect x="0.148193" y="0.0786133" width="56" height="56" rx="28" fill="#E6316A"></rect><path d="M17.1299 28.0749H16.1482C16.1482 21.4632 21.5328 16.0786 28.1519 16.0786C31.6846 16.0786 35.0239 17.6256 37.3146 20.3253L36.5709 20.9574C34.4661 18.4808 31.402 17.0529 28.1519 17.0529C22.0757 17.0529 17.1299 21.9987 17.1299 28.0749Z" fill="white"></path><path d="M36.6527 20.355C36.9502 18.9494 38.3781 17.4396 39.5309 16.6513C38.7202 18.8453 38.3335 21.2549 38.7574 23.5977C36.8237 22.2367 34.4215 21.7235 32.1011 21.4781C33.4249 20.7641 35.1429 20.0799 36.6601 20.3625L36.6527 20.355Z" fill="white"></path><path d="M28.1519 40.0786C24.3589 40.0786 20.8634 38.3383 18.5727 35.3113L19.3536 34.7238C21.4584 37.5053 24.6638 39.1043 28.1519 39.1043C34.2281 39.1043 39.1739 34.1586 39.1739 28.0823H40.1482C40.1482 34.7015 34.7636 40.0786 28.1519 40.0786Z" fill="white"></path><path d="M19.2272 35.3113C18.8479 36.7021 17.3382 38.1226 16.1482 38.8515C17.0853 36.7095 17.6059 34.3222 17.3158 31.9571C19.1677 33.4297 21.5328 34.0693 23.8457 34.4561C22.4847 35.0957 20.7295 35.6758 19.2347 35.3113H19.2272Z" fill="white"></path><path d="M28.9626 28.5509H25.0729L23.1318 25.1892L25.0729 21.8276H28.9626L30.9037 25.1892L28.9626 28.5509ZM25.6381 27.5766H28.3973L29.7807 25.1892L28.3973 22.8019H25.6381L24.2548 25.1892L25.6381 27.5766Z" fill="white"></path><path d="M33.9455 31.4291H30.0558L28.1147 28.06L30.0558 24.6984H33.9455L35.8867 28.06L33.9455 31.4291ZM30.6211 30.4548H33.3803L34.7636 28.06L33.3803 25.6727H30.6211L29.2378 28.06L30.6211 30.4548Z" fill="white"></path><path d="M28.9626 34.3073H25.0729L23.1318 30.9457L25.0729 27.5766H28.9626L30.9037 30.9457L28.9626 34.3073ZM25.6381 33.333H28.3973L29.7807 30.9457L28.3973 28.5509H25.6381L24.2548 30.9457L25.6381 33.333Z" fill="white"></path><path d="M17.1299 28.0749H16.1482C16.1482 21.4632 21.5328 16.0786 28.1519 16.0786C31.6846 16.0786 35.0239 17.6256 37.3146 20.3253L36.5709 20.9574C34.4661 18.4808 31.402 17.0529 28.1519 17.0529C22.0757 17.0529 17.1299 21.9987 17.1299 28.0749Z" stroke="white"></path><path d="M36.6527 20.355C36.9502 18.9494 38.3781 17.4396 39.5309 16.6513C38.7202 18.8453 38.3335 21.2549 38.7574 23.5977C36.8237 22.2367 34.4215 21.7235 32.1011 21.4781C33.4249 20.7641 35.1429 20.0799 36.6601 20.3625L36.6527 20.355Z" stroke="white"></path><path d="M28.1519 40.0786C24.3589 40.0786 20.8634 38.3383 18.5727 35.3113L19.3536 34.7238C21.4584 37.5053 24.6638 39.1043 28.1519 39.1043C34.2281 39.1043 39.1739 34.1586 39.1739 28.0823H40.1482C40.1482 34.7015 34.7636 40.0786 28.1519 40.0786Z" stroke="white"></path><path d="M19.2272 35.3113C18.8479 36.7021 17.3382 38.1226 16.1482 38.8515C17.0853 36.7095 17.6059 34.3222 17.3158 31.9571C19.1677 33.4297 21.5328 34.0693 23.8457 34.4561C22.4847 35.0957 20.7295 35.6758 19.2347 35.3113H19.2272Z" stroke="white"></path><path d="M28.9626 28.5509H25.0729L23.1318 25.1892L25.0729 21.8276H28.9626L30.9037 25.1892L28.9626 28.5509ZM25.6381 27.5766H28.3973L29.7807 25.1892L28.3973 22.8019H25.6381L24.2548 25.1892L25.6381 27.5766Z" stroke="white"></path><path d="M33.9455 31.4291H30.0558L28.1147 28.06L30.0558 24.6984H33.9455L35.8867 28.06L33.9455 31.4291ZM30.6211 30.4548H33.3803L34.7636 28.06L33.3803 25.6727H30.6211L29.2378 28.06L30.6211 30.4548Z" stroke="white"></path><path d="M28.9626 34.3073H25.0729L23.1318 30.9457L25.0729 27.5766H28.9626L30.9037 30.9457L28.9626 34.3073ZM25.6381 33.333H28.3973L29.7807 30.9457L28.3973 28.5509H25.6381L24.2548 30.9457L25.6381 33.333Z" stroke="white"></path></svg>