<svg xmlns="http://www.w3.org/2000/svg" width="25" height="25" viewBox="0 0 25 25" fill="none"><g clip-path="url(#clip0_1_25)"><path d="M5.93889 9.76853V8.63675L2.09393 12.0243L5.93889 15.5127V14.3809C13.7373 13.3034 18.218 14.3809 18.218 14.3809V15.5127L22.2102 12.0243L18.218 8.63675V9.71427C12.2645 10.7375 5.93889 9.76853 5.93889 9.76853Z" fill="white"></path><path opacity="0.47" d="M10.2025 14.5437C10.0862 16.9003 9.83811 18.2879 9.83811 18.2879H8.70633L12.0939 22.1329L15.5823 18.2879H14.4505C14.249 16.8383 14.1249 15.722 14.0552 14.505C12.9311 14.474 11.6443 14.474 10.1947 14.5437H10.2025Z" fill="white"></path><path opacity="0.47" d="M8.70633 6.00885H9.78385C10.0009 7.27242 10.1249 8.32668 10.1947 9.55924C11.3652 9.598 12.6598 9.6135 14.0164 9.55924C14.1327 7.10187 14.4505 6.0011 14.4505 6.0011H15.5823L12.0939 2.00885L8.70633 6.0011V6.00885Z" fill="white"></path><path d="M0.148193 12.0786C0.148193 18.7065 5.52029 24.0786 12.1482 24.0786C18.7761 24.0786 24.1482 18.7065 24.1482 12.0786C24.1482 5.45071 18.7761 0.0786133 12.1482 0.0786133C5.52029 0.0786133 0.148193 5.45071 0.148193 12.0786ZM23.0319 12.0786C23.0319 18.0786 18.1482 22.9623 12.1482 22.9623C6.14819 22.9623 1.26447 18.0786 1.26447 12.0786C1.26447 6.07861 6.14819 1.19489 12.1482 1.19489C18.1482 1.19489 23.0319 6.07861 23.0319 12.0786Z" fill="white"></path></g><defs><clipPath id="clip0_1_25"><rect width="24" height="24" fill="white" transform="translate(0.148193 0.0786133)"></rect></clipPath></defs></svg>