<svg xmlns="http://www.w3.org/2000/svg" width="25" height="26" viewBox="0 0 25 26" fill="none"><g clip-path="url(#clip0_1_13)"><path d="M7.66638 9.349C7.6913 8.06578 8.15652 6.63354 8.85434 5.25925C9.68507 3.62004 10.765 2.16297 12.0278 0.830077C12.36 0.482365 12.792 0.44925 13.0994 0.780404C14.7941 2.57691 16.1981 4.56383 17.0205 6.91502C17.3445 7.85053 17.5272 8.81087 17.5106 9.79605C17.4608 12.6357 14.8689 14.8793 12.0444 14.5315C9.51062 14.2252 7.64977 12.1224 7.67469 9.34072L7.66638 9.349Z" fill="white"></path><path d="M4.65909 13.5464C7.11808 15.02 9.7349 15.9803 12.6342 15.9721C15.5002 15.9638 18.0838 15.0034 20.5926 13.5629C20.2853 13.505 20.0444 13.4719 19.8117 13.4139C19.305 13.2897 19.1056 12.7019 19.4296 12.3045C19.5791 12.1141 19.7868 12.0065 20.0277 12.0479C20.9 12.1886 21.764 12.3377 22.6279 12.5115C23.0184 12.586 23.2261 12.9834 23.1098 13.3642C22.8522 14.2004 22.5864 15.0448 22.3123 15.8727C22.1877 16.2535 21.8055 16.444 21.4317 16.3363C21.0579 16.2287 20.8668 15.8396 20.9748 15.4339C21.0246 15.2601 21.0745 15.0945 21.1492 14.8461C15.3839 18.2156 9.66844 18.1742 3.91974 14.7882C3.9945 15.0531 4.05266 15.2353 4.11081 15.4174C4.23542 15.8396 4.05266 16.2204 3.67052 16.3446C3.28838 16.4688 2.91455 16.2618 2.77332 15.8479C2.51579 15.0448 2.24996 14.2335 2.00073 13.4222C1.85951 12.9586 2.09212 12.5695 2.57394 12.4867C3.37145 12.3377 4.16896 12.1969 4.96647 12.0562C5.38184 11.9817 5.74736 12.2383 5.81382 12.6357C5.88028 13 5.62275 13.3477 5.224 13.4387C5.03293 13.4801 4.84186 13.505 4.65079 13.5464H4.65909Z" fill="white"></path><path d="M22.819 19.4243H1.47737C0.743287 19.4243 0.148193 20.0174 0.148193 20.749V24.2757C0.148193 25.0073 0.743287 25.6004 1.47737 25.6004H22.819C23.5531 25.6004 24.1482 25.0073 24.1482 24.2757V20.749C24.1482 20.0174 23.5531 19.4243 22.819 19.4243Z" fill="white"></path></g><defs><clipPath id="clip0_1_13"><rect width="24" height="25.0435" fill="white" transform="translate(0.148193 0.556875)"></rect></clipPath></defs></svg>