<svg xmlns="http://www.w3.org/2000/svg" width="26" height="26" viewBox="0 0 26 26" fill="none"><path d="M2.12991 13.0749H1.14819C1.14819 6.46318 6.53276 1.07861 13.1519 1.07861C16.6846 1.07861 20.0239 2.62556 22.3146 5.32528L21.5709 5.95745C19.4661 3.48084 16.402 2.05289 13.1519 2.05289C7.07568 2.05289 2.12991 6.99866 2.12991 13.0749Z" fill="white"></path><path d="M21.6527 5.35503C21.9502 3.94939 23.3781 2.43963 24.5309 1.65128C23.7202 3.84527 23.3335 6.25494 23.7574 8.59767C21.8237 7.23666 19.4215 6.72348 17.1011 6.47806C18.4249 5.76408 20.1429 5.07985 21.6601 5.36247L21.6527 5.35503Z" fill="white"></path><path d="M13.1519 25.0786C9.35892 25.0786 5.86341 23.3383 3.57274 20.3113L4.35365 19.7238C6.45839 22.5053 9.66384 24.1043 13.1519 24.1043C19.2281 24.1043 24.1739 19.1586 24.1739 13.0823H25.1482C25.1482 19.7015 19.7636 25.0786 13.1519 25.0786Z" fill="white"></path><path d="M4.22721 20.3113C3.84791 21.7021 2.33815 23.1226 1.14819 23.8515C2.08529 21.7095 2.60589 19.3222 2.31584 16.9571C4.16772 18.4297 6.53276 19.0693 8.84575 19.4561C7.48473 20.0957 5.72954 20.6758 4.23465 20.3113H4.22721Z" fill="white"></path><path d="M13.9626 13.5509H10.0729L8.13177 10.1892L10.0729 6.82761H13.9626L15.9037 10.1892L13.9626 13.5509ZM10.6381 12.5766H13.3973L14.7807 10.1892L13.3973 7.80189H10.6381L9.25479 10.1892L10.6381 12.5766Z" fill="white"></path><path d="M18.9455 16.4291H15.0558L13.1147 13.06L15.0558 9.69838H18.9455L20.8867 13.06L18.9455 16.4291ZM15.6211 15.4548H18.3803L19.7636 13.06L18.3803 10.6727H15.6211L14.2378 13.06L15.6211 15.4548Z" fill="white"></path><path d="M13.9626 19.3073H10.0729L8.13177 15.9457L10.0729 12.5766H13.9626L15.9037 15.9457L13.9626 19.3073ZM10.6381 18.333H13.3973L14.7807 15.9457L13.3973 13.5509H10.6381L9.25479 15.9457L10.6381 18.333Z" fill="white"></path><path d="M2.12991 13.0749H1.14819C1.14819 6.46318 6.53276 1.07861 13.1519 1.07861C16.6846 1.07861 20.0239 2.62556 22.3146 5.32528L21.5709 5.95745C19.4661 3.48084 16.402 2.05289 13.1519 2.05289C7.07568 2.05289 2.12991 6.99866 2.12991 13.0749Z" stroke="white"></path><path d="M21.6527 5.35503C21.9502 3.94939 23.3781 2.43963 24.5309 1.65128C23.7202 3.84527 23.3335 6.25494 23.7574 8.59767C21.8237 7.23666 19.4215 6.72348 17.1011 6.47806C18.4249 5.76408 20.1429 5.07985 21.6601 5.36247L21.6527 5.35503Z" stroke="white"></path><path d="M13.1519 25.0786C9.35892 25.0786 5.86341 23.3383 3.57274 20.3113L4.35365 19.7238C6.45839 22.5053 9.66384 24.1043 13.1519 24.1043C19.2281 24.1043 24.1739 19.1586 24.1739 13.0823H25.1482C25.1482 19.7015 19.7636 25.0786 13.1519 25.0786Z" stroke="white"></path><path d="M4.22721 20.3113C3.84791 21.7021 2.33815 23.1226 1.14819 23.8515C2.08529 21.7095 2.60589 19.3222 2.31584 16.9571C4.16772 18.4297 6.53276 19.0693 8.84575 19.4561C7.48473 20.0957 5.72954 20.6758 4.23465 20.3113H4.22721Z" stroke="white"></path><path d="M13.9626 13.5509H10.0729L8.13177 10.1892L10.0729 6.82761H13.9626L15.9037 10.1892L13.9626 13.5509ZM10.6381 12.5766H13.3973L14.7807 10.1892L13.3973 7.80189H10.6381L9.25479 10.1892L10.6381 12.5766Z" stroke="white"></path><path d="M18.9455 16.4291H15.0558L13.1147 13.06L15.0558 9.69838H18.9455L20.8867 13.06L18.9455 16.4291ZM15.6211 15.4548H18.3803L19.7636 13.06L18.3803 10.6727H15.6211L14.2378 13.06L15.6211 15.4548Z" stroke="white"></path><path d="M13.9626 19.3073H10.0729L8.13177 15.9457L10.0729 12.5766H13.9626L15.9037 15.9457L13.9626 19.3073ZM10.6381 18.333H13.3973L14.7807 15.9457L13.3973 13.5509H10.6381L9.25479 15.9457L10.6381 18.333Z" stroke="white"></path></svg>