<svg xmlns="http://www.w3.org/2000/svg" width="25" height="25" viewBox="0 0 25 25" fill="none"><path d="M0.148193 19.3916C0.230639 19.3916 0.32133 19.3916 0.403776 19.3916C8.21965 19.3916 16.0273 19.3916 23.8431 19.3916H24.1482V24.0827H0.148193C0.148193 22.5163 0.148193 20.9498 0.148193 19.3916Z" fill="white"></path><path d="M0.148193 14.2799C0.601646 14.2882 1.0551 14.3047 1.50031 14.3129C3.39656 14.3129 5.24335 14.6427 7.06541 15.1209C8.88746 15.6073 10.759 15.7145 12.6387 15.7062C14.568 15.6897 16.4395 15.3517 18.2945 14.8653C20.1661 14.3789 22.0871 14.2799 24.008 14.3047C24.0493 14.3047 24.0822 14.3129 24.1317 14.3211V17.9817H23.8349C16.0438 17.9817 8.24438 17.9817 0.453243 17.9817C0.354308 17.9817 0.247128 17.9817 0.148193 17.9817C0.148193 16.7451 0.148193 15.5166 0.148193 14.2799Z" fill="white"></path><path d="M0.148193 5.27683C0.461488 4.9388 0.766538 4.59253 1.08808 4.23801C1.36015 4.51008 1.55802 4.7162 1.75589 4.91407C2.52264 5.68906 3.28938 6.4723 4.05613 7.25553C4.13033 7.32973 4.19629 7.42867 4.21278 7.5276C4.30347 8.36855 4.51783 9.16828 4.85585 9.93502C4.87234 9.968 4.87234 10.001 4.88059 10.0422C4.85585 10.0669 4.83112 10.0834 4.80639 10.1082C4.76516 10.034 4.73219 9.95151 4.67447 9.88556C3.22343 8.40977 1.77238 6.93399 0.32133 5.46646C0.271862 5.41699 0.205905 5.36752 0.148193 5.3263C0.148193 5.30981 0.148193 5.29332 0.148193 5.27683Z" fill="white"></path><path d="M12.1358 13.3071C8.47523 13.2988 5.52367 10.3308 5.53191 6.67841C5.54016 3.02606 8.50821 0.0744934 12.1606 0.0744934C15.8129 0.0744934 18.7727 3.05079 18.7645 6.70314C18.7562 10.3637 15.7882 13.3153 12.1358 13.3071ZM10.0994 5.13667C10.0994 5.24385 10.0994 5.3263 10.0994 5.41699C10.0994 6.05182 10.0994 6.67841 10.0994 7.31324C10.0994 7.46989 10.0994 7.62654 10.0664 7.77494C9.99224 8.12946 9.80261 8.2861 9.47283 8.2861C9.12655 8.2861 8.92868 8.1377 8.85448 7.77494C8.8215 7.62654 8.8215 7.46164 8.8215 7.31324C8.8215 6.67016 8.8215 6.03533 8.8215 5.39225C8.8215 5.30981 8.8215 5.22736 8.8215 5.15316H7.41992C7.41992 6.04357 7.38694 6.9175 7.42817 7.78318C7.46939 8.64062 8.01353 9.2095 8.84624 9.38263C9.11006 9.44034 9.39038 9.45683 9.66245 9.44034C10.2478 9.40737 10.7837 9.21774 11.1465 8.71482C11.3938 8.37679 11.501 7.9893 11.501 7.56882C11.501 6.80208 11.501 6.03533 11.501 5.27683C11.501 5.23561 11.4845 5.18614 11.4845 5.13667H10.0994ZM12.3255 5.12843C12.3337 5.18614 12.3337 5.21087 12.3419 5.23561C12.9026 6.56298 13.4632 7.89861 14.0321 9.21774C14.0568 9.2837 14.164 9.34141 14.2382 9.34965C14.5927 9.36614 14.939 9.34966 15.2935 9.3579C15.4502 9.3579 15.5079 9.30019 15.5656 9.16827C16.1015 7.88212 16.6539 6.59596 17.1898 5.30981C17.2145 5.26034 17.2227 5.20263 17.2475 5.12843C16.8435 5.12843 16.4725 5.13667 16.1015 5.12843C15.9201 5.12843 15.8459 5.18614 15.7799 5.35103C15.4831 6.0848 15.1698 6.81857 14.8483 7.59356C14.7988 7.49462 14.7659 7.42042 14.7411 7.35446C14.4608 6.67841 14.1887 5.99411 13.9084 5.31805C13.8754 5.24385 13.793 5.14492 13.7353 5.14492C13.2736 5.12843 12.8119 5.14492 12.3337 5.14492L12.3255 5.12843Z" fill="white"></path><path d="M24.1317 7.75845H22.7549V6.6949C22.7549 6.6949 22.7219 6.67841 22.6972 6.67016C21.6006 7.83265 20.4958 8.99514 19.3993 10.1576C19.3911 10.1576 19.3746 10.1494 19.3663 10.1411C19.3828 10.0999 19.3911 10.0504 19.4076 10.0092C19.7621 9.21774 19.9929 8.40153 20.0836 7.53585C20.0919 7.43691 20.1496 7.32973 20.2238 7.25553C20.6855 6.75261 21.1554 6.26618 21.6171 5.7715C21.6666 5.71379 21.716 5.65608 21.7985 5.56539H20.5453V4.17205H24.1317V7.75845Z" fill="white"></path></svg>