<svg xmlns="http://www.w3.org/2000/svg" width="25" height="25" viewBox="0 0 25 25" fill="none"><path d="M21.8031 2.95765C21.8003 4.09254 20.9307 5.3813 19.2651 6.2402C18.6798 6.54206 17.2758 7.12204 16.1567 7.45536C15.3086 7.71082 13.4562 8.3212 12.1938 8.76199C11.3521 9.05504 8.97124 9.3561 9.17331 9.84622C9.1986 9.90755 9.61823 9.79022 10.213 9.71209C11.0684 9.59982 11.3777 9.66515 11.6518 9.81848C11.8305 9.92061 11.9323 10.0523 11.9484 10.2003C11.9643 10.3617 11.8751 10.523 11.6901 10.6707C11.4223 10.8859 8.54972 12.0123 8.54972 12.0123C7.49134 12.4155 6.45192 12.9101 5.27875 13.5717C4.17546 14.1954 3.24135 14.4293 2.59436 14.7037C2.67721 14.5586 3.37859 13.3546 3.63093 12.9898C4.74845 11.3648 6.25176 9.71742 7.65261 8.58279C9.1809 7.34817 10.7949 6.3802 12.4493 5.70582C13.268 5.37197 13.5858 5.2661 14.8789 4.89732C15.4664 4.72639 15.6371 4.66986 15.6596 4.50906C15.6802 4.39333 15.627 4.32667 15.5786 4.29147C15.4553 4.20054 15.2615 4.228 14.9241 4.31467C12.9841 4.81118 11.1962 5.53756 9.61001 6.47406C8.99654 6.83512 7.60043 7.84015 6.94238 8.3948C4.96411 10.0593 2.85651 12.5792 2.0043 14.4479C1.65266 15.2191 1.14987 16.5745 1.14987 16.5745C0.805509 17.6014 0.751435 17.7601 0.46747 17.7601C0.330231 17.7601 0.257184 17.7089 0.218922 17.666C0.116783 17.5449 0.126586 17.2529 0.239792 16.9116C0.316634 16.6796 1.03698 14.4666 1.33581 13.6266C1.33581 12.328 1.31905 11.703 1.42119 11.2539C1.78769 9.62196 2.17506 8.50413 2.98331 7.18604C4.55714 4.61972 6.12464 4.04854 6.2448 4.50826C6.27389 4.61919 5.95198 5.40396 6.25745 5.40956C6.3365 5.4109 6.9895 4.52613 7.08436 4.42666C8.51589 2.92831 9.52052 2.24994 10.2108 1.99714C11.0795 1.67929 10.8803 2.427 10.8803 2.427C10.8803 2.427 11.6006 1.92115 11.7571 1.82195C13.1131 0.963046 14.464 0.314001 16.1314 0.123074C17.1325 0.0102777 18.6659 0.120407 19.4153 0.359599C20.9964 0.863316 21.8063 1.73689 21.8031 2.95765ZM23.4905 12.4293C23.8538 13.2573 23.9123 16.3268 21.8531 19.5307C20.5224 21.601 18.5122 22.5413 17.6252 22.6674C16.8913 22.7717 17.9313 21.9015 17.6018 21.8383C17.3248 21.7853 15.7687 23.5522 13.268 23.9953C12.3725 24.154 10.5479 24.202 9.41679 23.0383C8.63478 22.2341 7.9527 20.8645 8.75052 19.4248C9.70487 17.703 12.1205 16.9353 13.4691 16.5401C16.1184 15.7631 17.6616 15.1636 18.6245 14.5346C19.0485 14.2549 20.2919 13.3114 20.8914 12.7709C21.3759 12.3328 21.8701 12.0853 22.2623 11.9483C21.5874 13.2464 20.2856 15.2122 19.3992 16.2257C18.2861 17.4985 16.3531 19.0288 14.968 19.7496C14.8197 19.8616 14.8349 19.9992 14.8956 20.0797C14.9655 20.1723 15.1148 20.3067 15.3937 20.1637C15.4028 20.1592 15.4082 20.1584 15.4164 20.1547C16.6936 19.4878 18.4575 18.1163 19.667 16.8385C20.6173 15.8439 21.9786 13.9071 22.6639 12.6149C22.9292 12.1149 23.3779 10.6739 23.4418 10.3566C23.4544 10.2787 23.5088 10.0097 23.5534 9.93181C23.6331 9.81608 23.7798 9.77848 23.8883 9.78675C24.003 9.79742 24.0954 9.85395 24.1336 9.94275C24.2197 10.131 23.9009 11.2118 23.7893 11.5155C23.7222 11.7038 23.6587 11.8784 23.652 11.9296C23.5822 12.1632 23.5161 12.3664 23.4905 12.4293ZM14.18 20.5648C14.1576 20.4573 14.0908 20.4061 14.0396 20.3819C13.8897 20.3147 13.6952 20.3659 13.3126 20.5109C13.0957 20.5971 12.7418 20.7125 12.5189 20.7744C12.1872 20.8658 12.0057 20.9168 12.0057 21.1157C12.0057 21.1533 12.0057 21.2312 12.079 21.2904C12.1429 21.3416 12.2194 21.3496 12.2893 21.3496C12.3149 21.3496 12.3434 21.3469 12.3785 21.3469C12.6112 21.3362 13.5166 21.0565 13.9055 20.8872C14.008 20.8442 14.2183 20.7557 14.18 20.5648Z" fill="white"></path></svg>